<?xml version="1.0" encoding="utf-8"?>
<!-- Generator: Adobe Illustrator 27.5.0, SVG Export Plug-In . SVG Version: 6.00 Build 0)  -->
<svg version="1.1" xmlns="http://www.w3.org/2000/svg" xmlns:xlink="http://www.w3.org/1999/xlink" x="0px" y="0px"
	 viewBox="0 0 500 500" style="enable-background:new 0 0 500 500;" xml:space="preserve">
<g id="Background_Complete">
	<g>
		<rect y="382.398" style="fill:#EBEBEB;" width="500" height="0.25"/>
		<rect x="355.333" y="389.909" style="fill:#EBEBEB;" width="33.122" height="0.25"/>
		<rect x="257.973" y="398.369" style="fill:#EBEBEB;" width="44.027" height="0.25"/>
		<rect x="389.456" y="399.195" style="fill:#EBEBEB;" width="44.778" height="0.25"/>
		<rect x="53.689" y="389.659" style="fill:#EBEBEB;" width="43.193" height="0.25"/>
		<rect x="105.786" y="389.659" style="fill:#EBEBEB;" width="6.333" height="0.25"/>
		<rect x="132.701" y="393.881" style="fill:#EBEBEB;" width="93.676" height="0.25"/>
		<path style="fill:#EBEBEB;" d="M237.014,337.8H43.915c-3.147,0-5.708-2.561-5.708-5.708V60.66c0-3.147,2.561-5.708,5.708-5.708
			h193.099c3.146,0,5.707,2.561,5.707,5.708v271.432C242.721,335.239,240.16,337.8,237.014,337.8z M43.915,55.203
			c-3.01,0-5.458,2.448-5.458,5.458v271.432c0,3.01,2.448,5.458,5.458,5.458h193.099c3.009,0,5.457-2.448,5.457-5.458V60.66
			c0-3.009-2.448-5.458-5.457-5.458H43.915z"/>
		<path style="fill:#EBEBEB;" d="M453.31,337.8H260.212c-3.147,0-5.707-2.561-5.707-5.708V60.66c0-3.147,2.561-5.708,5.707-5.708
			H453.31c3.148,0,5.708,2.561,5.708,5.708v271.432C459.019,335.239,456.458,337.8,453.31,337.8z M260.212,55.203
			c-3.009,0-5.457,2.448-5.457,5.458v271.432c0,3.01,2.448,5.458,5.457,5.458H453.31c3.01,0,5.458-2.448,5.458-5.458V60.66
			c0-3.009-2.448-5.458-5.458-5.458H260.212z"/>
	</g>
	<g>
		<g>
			<g>
				
					<rect x="341.711" y="79.145" transform="matrix(-1 -1.224647e-16 1.224647e-16 -1 776.8872 330.1156)" style="fill:#E6E6E6;" width="93.464" height="171.826"/>
				
					<rect x="331.061" y="79.145" transform="matrix(-1 -1.224647e-16 1.224647e-16 -1 763.6946 330.1156)" style="fill:#F0F0F0;" width="101.573" height="171.826"/>
				
					<rect x="304.444" y="122.781" transform="matrix(-1.836970e-16 1 -1 -1.836970e-16 546.9052 -216.7896)" style="fill:#FFFFFF;" width="154.807" height="84.554"/>
			</g>
		</g>
		<g>
			<g>
				<g>
					<rect x="53.689" y="86.101" style="fill:#E0E0E0;" width="73.596" height="85.541"/>
					<rect x="56.178" y="86.101" style="fill:#F5F5F5;" width="75.51" height="85.541"/>
					
						<rect x="57.903" y="97.443" transform="matrix(-1.836970e-16 1 -1 -1.836970e-16 222.8046 34.9389)" style="fill:#FFFFFF;" width="72.059" height="62.858"/>
				</g>
			</g>
			<g>
				<g>
					<rect x="156.932" y="136.034" style="fill:#E0E0E0;" width="73.596" height="85.541"/>
					<rect x="159.421" y="136.034" style="fill:#F5F5F5;" width="75.51" height="85.541"/>
					
						<rect x="161.147" y="147.375" transform="matrix(-1.836970e-16 1 -1 -1.836970e-16 375.9804 -18.3719)" style="fill:#FFFFFF;" width="72.059" height="62.858"/>
				</g>
			</g>
		</g>
		<g>
			<g>
				<path style="fill:#F0F0F0;" d="M188.455,292.813v0.006c-0.504,0-1.01,0.011-1.521,0.046
					c-10.744,0.733-19.431,9.467-20.116,20.214c-0.156,2.454,0.097,4.827,0.697,7.058c2.475,9.19,3.4,18.729,3.4,28.246v27.734
					c0,2.011,1.63,3.641,3.641,3.641h13.9h13.9h60.236v-86.946H188.455z"/>
				<path style="fill:#F5F5F5;" d="M284.273,314.496c0-12.479-10.541-22.495-23.205-21.631
					c-10.744,0.733-19.431,9.467-20.116,20.214c-0.157,2.454,0.097,4.827,0.697,7.058c2.475,9.19,3.4,18.729,3.4,28.246v27.734
					c0,2.011,1.63,3.641,3.641,3.641h27.799c2.011,0,3.641-1.63,3.641-3.641v-29.363c0-8.928,0.973-17.861,3.358-26.464
					C284,318.447,284.273,316.504,284.273,314.496z"/>
			</g>
			<rect x="153.693" y="326.969" style="fill:#F0F0F0;" width="79.019" height="52.79"/>
			<path style="fill:#EBEBEB;" d="M163.697,252.204H90.755c-9.063,0-15.221,7.347-13.753,16.411l11.382,70.29h105.764l-11.382-70.29
				C181.298,259.551,172.76,252.204,163.697,252.204z"/>
			<path style="fill:#F5F5F5;" d="M185.15,252.204h-74.524c-8.627,0-14.488,6.993-13.091,15.62l11.51,71.08h105.764l-11.51-71.08
				C201.902,259.197,193.776,252.204,185.15,252.204z"/>
			<path style="fill:#EBEBEB;" d="M231.698,322.149h-72.833c-0.786,0-1.423,0.637-1.423,1.423v18.653
				c0,0.786,0.637,1.423,1.423,1.423h72.833c2.63,0,4.763-2.132,4.763-4.763v-11.973
				C236.46,324.282,234.328,322.149,231.698,322.149z"/>
			<g>
				<path style="fill:#F0F0F0;" d="M80.591,292.813v0.006c-0.504,0-1.01,0.011-1.522,0.046
					c-10.744,0.733-19.431,9.467-20.116,20.214c-0.156,2.454,0.097,4.827,0.698,7.058c2.475,9.19,3.4,18.729,3.4,28.246v27.734
					c0,2.011,1.63,3.641,3.641,3.641h13.9h13.899h60.236v-86.946H80.591z"/>
				<path style="fill:#F5F5F5;" d="M176.41,314.496c0-12.479-10.541-22.495-23.205-21.631c-10.744,0.733-19.431,9.467-20.116,20.214
					c-0.156,2.454,0.097,4.827,0.698,7.058c2.475,9.19,3.4,18.729,3.4,28.246v27.734c0,2.011,1.63,3.641,3.641,3.641h27.799
					c2.011,0,3.641-1.63,3.641-3.641v-29.363c0-8.928,0.973-17.861,3.358-26.464C176.136,318.447,176.41,316.504,176.41,314.496z"/>
			</g>
			<path style="fill:#E0E0E0;" d="M261.043,382.398H82.139c-1.458,0-2.64-1.182-2.64-2.639l0,0h184.183l0,0
				C263.682,381.217,262.5,382.398,261.043,382.398z"/>
		</g>
		<g>
			<g>
				<g>
					<rect x="410.702" y="341.713" style="fill:#E6E6E6;" width="43.039" height="3.532"/>
					
						<rect x="329.52" y="301.132" transform="matrix(-1 -1.224647e-16 1.224647e-16 -1 666.9851 683.5317)" style="fill:#E6E6E6;" width="7.946" height="81.269"/>
					
						<rect x="302" y="341.713" transform="matrix(-1 -1.224647e-16 1.224647e-16 -1 712.702 686.9585)" style="fill:#F5F5F5;" width="108.702" height="3.532"/>
					<rect x="410.702" y="361.039" style="fill:#E6E6E6;" width="43.039" height="3.532"/>
					
						<rect x="302" y="361.039" transform="matrix(-1 -1.224647e-16 1.224647e-16 -1 712.702 725.6091)" style="fill:#F5F5F5;" width="108.702" height="3.532"/>
					<rect x="410.702" y="303.063" style="fill:#E6E6E6;" width="43.039" height="3.532"/>
					
						<rect x="302" y="303.063" transform="matrix(-1 -1.224647e-16 1.224647e-16 -1 712.702 609.6575)" style="fill:#F5F5F5;" width="108.702" height="3.532"/>
					<rect x="410.702" y="322.388" style="fill:#E6E6E6;" width="43.039" height="3.532"/>
					
						<rect x="302" y="322.388" transform="matrix(-1 -1.224647e-16 1.224647e-16 -1 712.702 648.3079)" style="fill:#F5F5F5;" width="108.702" height="3.532"/>
				</g>
			</g>
			
				<rect x="438.222" y="301.132" transform="matrix(-1 -1.224647e-16 1.224647e-16 -1 884.3891 683.5317)" style="fill:#E6E6E6;" width="7.946" height="81.269"/>
			
				<rect x="402.756" y="301.132" transform="matrix(-1 -1.224647e-16 1.224647e-16 -1 813.4583 683.5317)" style="fill:#F5F5F5;" width="7.946" height="81.269"/>
			
				<rect x="302" y="301.132" transform="matrix(-1 -1.224647e-16 1.224647e-16 -1 611.9457 683.5317)" style="fill:#F5F5F5;" width="7.946" height="81.269"/>
		</g>
		<g>
			
				<rect x="380.177" y="252.781" transform="matrix(-1 -1.224647e-16 1.224647e-16 -1 764.6064 552.9551)" style="fill:#E6E6E6;" width="4.252" height="47.394"/>
			
				<rect x="380.725" y="252.748" transform="matrix(-1 -1.224647e-16 1.224647e-16 -1 762.6506 552.8896)" style="fill:#F0F0F0;" width="1.201" height="47.394"/>
			<path style="fill:#F0F0F0;" d="M366.564,303.063h31.479l0,0c0-2.19-1.776-3.966-3.966-3.966H370.53
				C368.339,299.097,366.564,300.873,366.564,303.063L366.564,303.063z"/>
			<path style="fill:#F0F0F0;" d="M375.212,301.892h1.583c0.237,0,0.431-0.194,0.431-0.431v-3.307c0-0.237-0.194-0.431-0.431-0.431
				h-1.583c-0.237,0-0.431,0.194-0.431,0.431v3.307C374.78,301.698,374.974,301.892,375.212,301.892z"/>
			<path style="fill:#F5F5F5;" d="M363.271,264.045h38.066l-3.633-30.366c-0.426-3.556-3.442-6.233-7.023-6.233h-16.753
				c-3.581,0-6.598,2.677-7.023,6.233L363.271,264.045z"/>
		</g>
	</g>
</g>
<g id="Background_Simple" style="display:none;">
	<g style="display:inline;">
		<path style="fill:#407BFF;" d="M302.726,295.23c-36.822,30.948-70.767,45.745-115.602,15.966
			c-36.594-24.306-19.925-51.358-38.658-82.513c-23.274-38.708-68.9-38.559-76.033-85.628
			c-6.884-45.418,38.577-82.937,83.902-79.777c48.434,3.377,74.553,51.397,115.624,70.298c48.164,22.164,97.469,3.36,140.797,41.365
			c29.084,25.512,30.872,64.965-4.577,87.588C375.489,283.391,336.501,266.843,302.726,295.23z"/>
		<path style="opacity:0.9;fill:#FFFFFF;" d="M302.726,295.23c-36.822,30.948-70.767,45.745-115.602,15.966
			c-36.594-24.306-19.925-51.358-38.658-82.513c-23.274-38.708-68.9-38.559-76.033-85.628
			c-6.884-45.418,38.577-82.937,83.902-79.777c48.434,3.377,74.553,51.397,115.624,70.298c48.164,22.164,97.469,3.36,140.797,41.365
			c29.084,25.512,30.872,64.965-4.577,87.588C375.489,283.391,336.501,266.843,302.726,295.23z"/>
	</g>
</g>
<g id="Shadow_1_">
	<ellipse id="_x3C_Path_x3E__301_" style="fill:#F5F5F5;" cx="250" cy="416.238" rx="193.889" ry="11.323"/>
</g>
<g id="Character_1_">
	<g>
		<path style="fill:#263238;" d="M295.711,162.373l-0.349,1.18l-0.324,1.008c-0.217,0.666-0.462,1.287-0.698,1.926
			c-0.48,1.256-1.015,2.477-1.569,3.68c-1.13,2.396-2.35,4.734-3.756,6.964c-0.685,1.124-1.417,2.221-2.155,3.311
			c-0.772,1.07-1.536,2.141-2.364,3.17c-1.593,2.1-3.398,4.044-5.226,5.944l-0.388,0.403c-0.555,0.577-1.227,1.03-1.916,1.337
			c-2.068,0.908-4.448,1.36-6.615,1.234c-2.18-0.103-4.096-0.659-5.74-1.347c-1.657-0.687-3.044-1.553-4.295-2.459
			c-1.242-0.912-2.356-1.861-3.364-2.856c-2.009-1.995-3.685-4.085-5.165-6.255c-0.742-1.082-1.421-2.193-2.071-3.313
			c-0.651-1.148-1.211-2.235-1.812-3.531c-0.93-2.005-0.057-4.385,1.948-5.314c1.509-0.699,3.229-0.379,4.385,0.677l0.262,0.242
			l2.444,2.238c0.829,0.758,1.68,1.484,2.525,2.189c1.693,1.404,3.407,2.707,5.098,3.741c1.655,1.059,3.367,1.801,4.579,2.032
			c0.602,0.117,1.055,0.089,1.27-0.012c0.224-0.11,0.234-0.182,0.326-0.301l-2.304,1.739c1.268-1.72,2.497-3.456,3.636-5.262
			c1.149-1.795,2.203-3.655,3.217-5.529c0.998-1.884,1.941-3.798,2.795-5.732c0.443-0.961,0.829-1.937,1.234-2.893l1.011-2.622
			l0.278-0.721c1.586-4.113,6.206-6.161,10.319-4.574C294.83,154.169,296.864,158.432,295.711,162.373z"/>
		<path style="fill:#CE7A63;" d="M250.755,172.825l-6.758-2.359l-1.416-9.254c0,0,11.326,2.995,11.277,8.459L250.755,172.825z"/>
		<g>
			<path style="fill:#263238;" d="M290.583,124.582c-4.417-1.552-10.5-6.832-8.109-13.666c1.812-5.179,8.56-5.639,11.21-4.083
				c2.65,1.556,2.761-1.635,6.15-2.857c3.389-1.222,5.778,1.857,7.5,3.469c1.722,1.611,3.722,0.389,6.278,0.5
				c2.556,0.111,4.372,3.447,2.944,5.889c-2.5,4.278,1.637,7.025-1.5,10.333c-4.607,4.857-1.036,9.611-7.495,14.444
				C303.611,141.567,292.393,136.138,290.583,124.582z"/>
			<path style="fill:#263238;" d="M290.499,129.1c-0.158,0.095-0.341,0.158-0.538,0.173c-0.69,0.061-1.299-0.45-1.359-1.144
				c-0.602-6.927,3.926-10.556,4.118-10.709c0.517-0.437,1.334-0.334,1.765,0.215c0.427,0.546,0.333,1.331-0.208,1.761l0,0
				c-0.152,0.119-3.649,2.987-3.171,8.517C291.149,128.408,290.897,128.862,290.499,129.1z"/>
			<path style="fill:#FFFFFF;" d="M283.309,152.367c0,0-8.872,22.701-0.445,64.976c12.115,0,34.313,0,40.208,0
				c0.277-6.172-3.601-36.281,2.352-65.364c0,0-6.892-1.383-13.46-1.7c-5.138-0.248-12.576-0.411-17.092,0.001
				C288.917,150.824,283.309,152.367,283.309,152.367z"/>
			<path style="fill:#CE7A63;" d="M310.27,131.035c-1.078,5.5-2.154,15.576,1.694,19.246c0,0-6.442,5.22-13.21,10.497
				c-5.248-4.778-3.883-10.497-3.883-10.497c6.133-1.465,5.974-6.014,4.906-10.288L310.27,131.035z"/>
			<path style="opacity:0.2;" d="M305.992,134.69l-6.21,5.299c0.256,1.011,0.456,2.037,0.527,3.034
				c2.017,1.898,5.561-2.91,5.81-5.363C306.243,136.436,306.192,135.26,305.992,134.69z"/>
			<path style="fill:#CE7A63;" d="M310.205,121.751c0.277,7.456,0.818,11.805-2.549,15.979c-5.065,6.278-14.547,3.788-17.046-3.435
				c-2.249-6.501-2.324-17.601,4.638-21.267C302.107,109.416,309.928,114.296,310.205,121.751z"/>
			<path style="fill:#263238;" d="M310,128.653c-2.048,4.005-4.405-8.653-3.814-10.764c-7.245,2-18.365,1.345-17.508-3.722
				c0.964-5.703,7.643-5.927,14.988-5.222C315.833,110.111,312.222,124.306,310,128.653z"/>
			<path style="fill:#263238;" d="M306.415,129.363c-0.185,0.008-0.375-0.024-0.555-0.105c-0.636-0.276-0.926-1.016-0.647-1.654
				c2.783-6.372,8.494-7.395,8.735-7.438c0.663-0.137,1.331,0.344,1.447,1.033c0.114,0.683-0.344,1.329-1.025,1.447l0,0
				c-0.19,0.032-4.633,0.879-6.856,5.965C307.316,129.066,306.878,129.344,306.415,129.363z"/>
			<path style="fill:#CE7A63;" d="M313.922,127.036c-0.428,1.965-1.635,3.574-2.926,4.475c-1.942,1.356-3.49-0.315-3.434-2.658
				c0.051-2.109,1.123-5.356,3.305-5.771C313.017,122.673,314.411,124.789,313.922,127.036z"/>
			<path style="fill:#263238;" d="M278.783,406.365c-0.933,0.23-1.864,0.323-2.263-0.023c-0.14-0.121-0.281-0.351-0.161-0.758
				c0.067-0.228,0.219-0.41,0.451-0.538c1.133-0.628,4.011,0.198,4.133,0.233c0.07,0.021,0.12,0.083,0.125,0.157
				c0.005,0.074-0.036,0.144-0.103,0.175C280.522,405.818,279.651,406.151,278.783,406.365z M277.301,405.235
				c-0.121,0.03-0.23,0.07-0.324,0.122c-0.149,0.082-0.24,0.189-0.281,0.325c-0.072,0.245-0.003,0.34,0.056,0.39
				c0.448,0.388,2.287-0.054,3.594-0.579C279.591,405.312,278.15,405.026,277.301,405.235z"/>
			<path style="fill:#263238;" d="M280.931,405.623c-0.024,0.006-0.049,0.007-0.074,0.002c-0.969-0.179-3.074-1.327-3.133-2.184
				c-0.014-0.201,0.067-0.476,0.529-0.641c0.345-0.123,0.687-0.102,1.023,0.061c1.102,0.534,1.755,2.449,1.783,2.53
				c0.02,0.06,0.007,0.126-0.035,0.174C280.999,405.594,280.966,405.614,280.931,405.623z M278.469,403.104
				c-0.034,0.008-0.068,0.019-0.102,0.031c-0.302,0.108-0.294,0.235-0.29,0.277c0.036,0.514,1.505,1.462,2.526,1.781
				c-0.227-0.551-0.76-1.662-1.483-2.012C278.901,403.076,278.688,403.05,278.469,403.104z"/>
			<polygon style="fill:#CE7A63;" points="291.86,408.002 284.326,409.11 284.57,391.854 292.104,390.746 			"/>
			<path style="fill:#263238;" d="M283.197,404.646h9.878c0.306,0,0.554,0.212,0.597,0.511l0.957,6.653
				c0.099,0.69-0.476,1.343-1.181,1.331c-2.945-0.05-7.192-0.223-10.898-0.223c-4.333,0-8.218,0.236-13.299,0.236
				c-3.073,0-3.637-2.915-2.374-3.388c5.688-2.128,8.721-2.489,14.472-4.538C281.973,405.006,282.551,404.646,283.197,404.646z"/>
			<g>
				<polygon style="opacity:0.2;" points="284.571,391.858 284.444,400.753 291.981,399.645 292.108,390.75 				"/>
			</g>
			<path style="fill:#263238;" d="M287.954,405.18c-0.057-3.193,0.944-8.315-7.013-5.184c-4.741,1.865,1.689,7.331,1.689,7.331
				L287.954,405.18z"/>
			<g>
				<path style="fill:#407BFF;" d="M282.864,217.336c0,0-4.023,60.578-2.869,82.112c1.094,20.413,1.712,78.317,1.858,93.501
					c0.019,1.959,1.751,3.451,3.692,3.189l5.327-0.719c1.462-0.197,2.607-1.35,2.795-2.813c3.445-26.805,7.532-68.161,8.424-90.307
					c1.018-25.268,7.216-84.958,7.216-84.958L282.864,217.336z"/>
				<path style="opacity:0.2;fill:#FFFFFF;" d="M282.864,217.336c0,0-4.023,60.578-2.869,82.112
					c1.094,20.413,1.712,78.317,1.858,93.501c0.019,1.959,1.751,3.451,3.692,3.189l5.327-0.719c1.462-0.197,2.607-1.35,2.795-2.813
					c3.445-26.805,7.532-68.161,8.424-90.307c1.018-25.268,7.216-84.958,7.216-84.958L282.864,217.336z"/>
			</g>
			<path style="fill:#263238;" d="M333.063,405.382c-0.877,0.392-1.776,0.65-2.231,0.38c-0.159-0.094-0.34-0.295-0.294-0.717
				c0.025-0.237,0.143-0.442,0.348-0.61c1.003-0.82,3.982-0.519,4.108-0.506c0.073,0.008,0.133,0.06,0.151,0.132
				c0.018,0.072-0.01,0.148-0.07,0.191C334.677,404.534,333.88,405.017,333.063,405.382z M331.403,404.534
				c-0.114,0.051-0.214,0.11-0.297,0.177c-0.132,0.108-0.203,0.229-0.219,0.37c-0.027,0.253,0.058,0.335,0.124,0.374
				c0.51,0.302,2.241-0.46,3.433-1.209C333.671,404.202,332.202,404.177,331.403,404.534z"/>
			<path style="fill:#263238;" d="M335.045,404.269c-0.023,0.01-0.047,0.015-0.073,0.015c-0.986-0.003-3.261-0.759-3.472-1.592
				c-0.049-0.196-0.019-0.48,0.406-0.724c0.317-0.182,0.658-0.223,1.018-0.122c1.179,0.329,2.163,2.098,2.204,2.173
				c0.03,0.055,0.029,0.123-0.003,0.177C335.106,404.229,335.078,404.255,335.045,404.269z M332.174,402.229
				c-0.032,0.014-0.064,0.03-0.095,0.048c-0.278,0.16-0.247,0.284-0.237,0.324c0.126,0.5,1.741,1.171,2.802,1.303
				c-0.321-0.501-1.043-1.5-1.817-1.716C332.594,402.124,332.379,402.138,332.174,402.229z"/>
			<polygon style="fill:#CE7A63;" points="346.659,404.706 339.564,407.115 334.846,390.432 341.942,388.024 			"/>
			<path style="opacity:0.2;" d="M301.522,238.97c-2.07,8.29-1.52,42.74,0.62,62.16c0.51-11.37,1.95-28.9,3.41-44.99L301.522,238.97
				z"/>
			<path style="fill:#263238;" d="M336.825,403.074l9.72-1.758c0.301-0.055,0.597,0.108,0.712,0.391l2.555,6.299
				c0.265,0.653-0.142,1.391-0.84,1.505c-2.91,0.475-7.131,1.063-10.778,1.722c-4.264,0.771-4.298,1.017-9.299,1.922
				c-3.024,0.547-4.286-2.187-3.157-2.872c5.081-3.081,4.247-3.297,9.409-6.313C335.708,403.642,336.19,403.189,336.825,403.074z"/>
			<g>
				<polygon style="opacity:0.2;" points="334.849,390.436 337.279,399.036 344.378,396.626 341.947,388.027 				"/>
			</g>
			<g>
				<path style="fill:#407BFF;" d="M297.127,217.339c0,0,5.183,60.58,9.173,82.114c3.838,20.714,21.21,79.735,26.335,93.152
					c0.62,1.622,2.401,2.468,4.051,1.929l5.133-1.675c1.563-0.51,2.503-2.098,2.19-3.711c-5.095-26.329-13.223-64.805-15.238-86.844
					c-2.31-25.268-5.7-84.96-5.7-84.96L297.127,217.339z"/>
				<path style="opacity:0.2;fill:#FFFFFF;" d="M297.127,217.339c0,0,5.183,60.58,9.173,82.114
					c3.838,20.714,21.21,79.735,26.335,93.152c0.62,1.622,2.401,2.468,4.051,1.929l5.133-1.675c1.563-0.51,2.503-2.098,2.19-3.711
					c-5.095-26.329-13.223-64.805-15.238-86.844c-2.31-25.268-5.7-84.96-5.7-84.96L297.127,217.339z"/>
			</g>
			<path style="fill:#263238;" d="M299.169,124.933c0.06,0.604-0.212,1.124-0.606,1.163c-0.395,0.039-0.762-0.418-0.822-1.022
				c-0.06-0.603,0.212-1.124,0.606-1.163C298.741,123.872,299.109,124.33,299.169,124.933z"/>
			<path style="fill:#263238;" d="M292.349,125.607c0.06,0.604-0.212,1.124-0.606,1.163c-0.394,0.039-0.763-0.418-0.822-1.022
				c-0.06-0.603,0.212-1.124,0.606-1.163C291.921,124.546,292.289,125.003,292.349,125.607z"/>
			<path style="fill:#BA4D3C;" d="M294.547,125.693c0,0-1.028,3.617-2.373,5.445c1.166,0.891,2.936,0.256,2.936,0.256
				L294.547,125.693z"/>
			<path style="fill:#263238;" d="M297.033,132.887c-0.098,0.01-0.185-0.062-0.195-0.16c-0.01-0.098,0.062-0.185,0.16-0.195
				c2.649-0.262,3.702-2.234,3.713-2.254c0.047-0.087,0.154-0.121,0.24-0.075c0.087,0.045,0.121,0.152,0.076,0.24
				C300.98,130.531,299.872,132.606,297.033,132.887z"/>
			<path style="fill:#263238;" d="M301.007,122.53c-0.107,0.011-0.218-0.027-0.296-0.113c-1.079-1.166-2.374-0.962-2.387-0.959
				c-0.181,0.038-0.378-0.097-0.411-0.291c-0.033-0.194,0.098-0.378,0.291-0.411c0.069-0.012,1.691-0.271,3.029,1.177
				c0.134,0.145,0.125,0.37-0.02,0.503C301.155,122.492,301.082,122.523,301.007,122.53z"/>
			<path style="fill:#263238;" d="M289.047,123.492c-0.052,0.002-0.106-0.007-0.157-0.031c-0.18-0.079-0.261-0.289-0.181-0.47
				c0.798-1.801,2.417-2.082,2.486-2.093c0.188-0.038,0.377,0.1,0.408,0.295c0.031,0.194-0.099,0.376-0.292,0.409l0,0
				c-0.054,0.009-1.314,0.242-1.951,1.679C289.303,123.409,289.178,123.487,289.047,123.492z"/>
		</g>
		<path style="fill:#263238;" d="M312.976,149.038c3.928,0.043,13.372,0.212,14.289,3.712s-0.083,9.167-1.333,12.5
			c1.833,5.083,1.25,12.583-0.5,14.917c1.917,5.667,0.667,9.833-0.5,11.833c0.917,2.25,1.75,8.667,0.333,11.833
			c1.167,4.5,2.498,12.049,0.417,13.51c-2.833,1.99-10.363,2.99-15.681,1.74c-5.319-1.25-3.235-12-2.819-14.5
			c-2.333-3.083,0.167-12.333,0.167-12.333c-1.167-2.583,0.583-12.25,0.583-12.25c-1.417-2.333,0.418-15,0.418-15
			C306.849,162.417,306.186,148.964,312.976,149.038z"/>
		<path style="fill:#263238;" d="M284.21,151.333c3.082-1.361,13.405-3.835,11.402-1.112c-2.902,3.946-1.125,8.112-2.839,13
			c1.513,4.671,1.032,12.302-0.413,15.029c1.582,5.236,0.55,9.684-0.413,11.946c0.757,2.044,1.445,8.273,0.275,11.758
			c0.963,4.238,1.76,12.783,0.042,14.712c-2.339,2.626-6.212,3.788-10.263,2.094c-2.45-1.024-3.542-9.178-2.332-11.993
			c-2.377-5.185-0.44-12.879-0.44-12.879c-2.298-4-0.52-12.389-0.52-12.389c-2.278-7.444,0.52-15.667,0.52-15.667
			C277.991,163.587,279.297,153.503,284.21,151.333z"/>
		<path style="fill:#263238;" d="M290.961,152.25c-0.378-0.409-1.3-0.969-1.332-2.621c-0.026-1.331,1.177-2.808,2.55-2.644
			c1.719,0.205,2.31,0.524,3.34,1.026c1.576,0.767,2.147,1.476,2.218,2.642c0.071,1.166-2.786,5.235-4.356,4.268
			C291.811,153.952,291.883,153.247,290.961,152.25z"/>
		<path style="opacity:0.2;" d="M321.34,166.55c0.78-3.37,2.76-3.07,4.73-1.69c-0.05,0.13-0.09,0.26-0.14,0.39
			c1.84,5.08,1.25,12.58-0.5,14.92c0.11,0.32,0.211,0.64,0.3,0.95C323.279,178.77,319.879,172.91,321.34,166.55z"/>
		<g>
			<g>
				<polygon style="fill:#407BFF;" points="321.683,174.779 315.026,177.817 314.375,199.298 296.31,210.939 316.539,218.197 
					322.029,238.975 328.685,235.937 332.409,202.06 				"/>
				<polygon style="opacity:0.3;" points="321.683,174.779 315.026,177.817 314.375,199.298 296.31,210.939 316.539,218.197 
					322.029,238.975 328.685,235.937 332.409,202.06 				"/>
			</g>
			<g>
				<polygon style="fill:#407BFF;" points="363.295,220.141 356.639,223.179 335.181,221.979 344.156,215.917 				"/>
				<polygon style="opacity:0.3;" points="363.295,220.141 356.639,223.179 335.181,221.979 344.156,215.917 				"/>
			</g>
			<polygon style="fill:#407BFF;" points="321.683,174.779 338.337,188.362 358.968,182.343 351.196,202.379 363.295,220.141 
				341.838,218.941 328.685,235.937 323.195,215.158 302.967,207.901 321.032,196.26 			"/>
		</g>
		<path style="fill:#CE7A63;" d="M332.148,217.483l-0.15,6.786l8.011-0.449c0,0,1.076-4.255-3.522-7.206L332.148,217.483z"/>
		<polygon style="fill:#CE7A63;" points="334.566,231.071 340.109,227.876 340.009,223.82 331.998,224.269 		"/>
		<path style="fill:#263238;" d="M327.56,152.508c0.652,0.599,1.139,1.063,1.685,1.59c0.533,0.512,1.04,1.039,1.551,1.562
			c1.022,1.045,2.001,2.127,2.97,3.225c1.929,2.202,3.775,4.506,5.512,6.966c1.729,2.467,3.382,5.072,4.809,7.998
			c1.402,2.958,2.748,6.149,3.164,10.348c0.06,0.508,0.085,1.054,0.086,1.618l0.004,0.832l-0.04,0.581l-0.172,2.278
			c-0.175,1.483-0.361,2.969-0.61,4.407c-0.452,2.898-1.103,5.708-1.816,8.469c-1.498,5.531-3.277,10.808-5.701,16.042
			c-0.931,2.01-3.316,2.885-5.326,1.954c-1.566-0.726-2.443-2.333-2.314-3.959l0.014-0.153c0.432-5.285,0.99-10.669,1.299-15.888
			c0.198-2.613,0.277-5.208,0.335-7.736c0.04-1.273-0.013-2.509-0.019-3.746l-0.076-1.809l-0.019-0.44l-0.044-0.189
			c-0.017-0.118-0.039-0.251-0.091-0.416c-0.286-1.228-1.14-3.131-2.24-4.992c-1.147-1.881-2.507-3.834-4.016-5.749
			c-1.507-1.92-3.13-3.827-4.813-5.706c-0.838-0.942-1.707-1.864-2.565-2.791l-1.299-1.368l-1.23-1.275l-0.204-0.211
			c-3.067-3.179-2.976-8.242,0.203-11.309C319.651,149.689,324.469,149.678,327.56,152.508z"/>
		<path style="fill:#263238;" d="M316.004,151.374c1.016-0.149,1.252-2.483,0.453-4.036c-0.644-1.252-2.999-1.082-5.101-0.536
			c-2.632,0.683-3.408,1.151-4.79,1.914c-2.114,1.168-1.343,2.586-0.857,3.696c0.486,1.11,1.423,3.661,3.425,2.307
			C311.136,153.367,314.598,151.58,316.004,151.374z"/>
		<path style="fill:#263238;" d="M341.221,402.626c-0.154-3.19,0.694-8.34-7.166-4.971c-4.682,2.007,1.909,7.277,1.909,7.277
			L341.221,402.626z"/>
		<g>
			<path style="fill:#407BFF;" d="M242.899,154.025h10.743c0.574,0,1.175,0.469,1.337,1.043l5.617,19.978
				c0.161,0.574-0.176,1.043-0.75,1.043h-10.743c-0.574,0-1.175-0.469-1.337-1.043l-5.617-19.978
				C241.988,154.495,242.325,154.025,242.899,154.025z"/>
			<polygon style="fill:#CE7A63;" points="248.747,167.484 246.497,159.65 242.581,161.212 243.997,170.465 			"/>
			<path style="opacity:0.3;" d="M254.501,154.721h0.015c0.201,0,0.411,0.164,0.467,0.365l5.608,19.944
				c0.056,0.201-0.062,0.365-0.262,0.365h-0.015c-0.201,0-0.411-0.164-0.467-0.365l-5.608-19.944
				C254.183,154.885,254.301,154.721,254.501,154.721z"/>
		</g>
	</g>
</g>
<g id="Review">
	<g>
		<g>
			<rect x="115" y="76.303" style="fill:#407BFF;" width="7.568" height="1"/>
			<path style="fill:#407BFF;" d="M86.959,87.636h-1c0-6.249,5.084-11.333,11.332-11.333h13.598v1H97.291
				C91.594,77.303,86.959,81.938,86.959,87.636z"/>
			<path style="fill:#407BFF;" d="M215.355,114.903H97.292c-4.308,0-7.833-3.525-7.833-7.833V87.635
				c0-4.308,3.525-7.833,7.833-7.833h118.064c4.308,0,7.833,3.525,7.833,7.833v19.435
				C223.188,111.378,219.663,114.903,215.355,114.903z"/>
			<polygon style="fill:#FFFFFF;" points="140.351,92.056 142.071,95.542 145.919,96.101 143.135,98.815 143.792,102.647 
				140.351,100.838 136.909,102.647 137.567,98.815 134.783,96.101 138.63,95.542 			"/>
			<polygon style="fill:#FFFFFF;" points="155.971,92.056 157.691,95.542 161.538,96.101 158.755,98.815 159.412,102.647 
				155.971,100.838 152.529,102.647 153.187,98.815 150.403,96.101 154.25,95.542 			"/>
			<polygon style="fill:#FFFFFF;" points="171.591,92.056 173.311,95.542 177.159,96.101 174.375,98.815 175.032,102.647 
				171.591,100.838 168.15,102.647 168.807,98.815 166.023,96.101 169.87,95.542 			"/>
			<polygon style="fill:#FFFFFF;" points="187.211,92.056 188.931,95.542 192.779,96.101 189.995,98.815 190.652,102.647 
				187.211,100.838 183.77,102.647 184.427,98.815 181.643,96.101 185.49,95.542 			"/>
			<path style="opacity:0.3;fill:#FFFFFF;" d="M202.831,94.316l0.824,1.669c0.146,0.295,0.427,0.5,0.753,0.547l1.842,0.268
				l-1.333,1.299c-0.236,0.23-0.343,0.561-0.288,0.885l0.315,1.835l-1.648-0.867c-0.146-0.076-0.306-0.115-0.465-0.115
				c-0.16,0-0.32,0.038-0.465,0.115l-1.648,0.867l0.315-1.835c0.056-0.324-0.052-0.655-0.288-0.885l-1.333-1.299l1.842-0.268
				c0.326-0.047,0.607-0.252,0.753-0.547L202.831,94.316 M202.831,92.056l-1.721,3.486l-3.847,0.559l2.784,2.714l-0.657,3.832
				l3.441-1.809l3.441,1.809l-0.657-3.832l2.784-2.714l-3.847-0.559L202.831,92.056L202.831,92.056z"/>
			<g>
				<circle style="opacity:0.2;fill:#FFFFFF;" cx="113.852" cy="97.353" r="12.013"/>
				<path style="fill:#FFFFFF;" d="M123.766,97.352c0,1.712-0.434,3.32-1.198,4.723c-1.672,3.09-4.947,5.192-8.716,5.192
					s-7.044-2.102-8.716-5.192c-0.764-1.403-1.198-3.01-1.198-4.723c0-5.477,4.438-9.915,9.914-9.915
					C119.328,87.437,123.766,91.875,123.766,97.352z"/>
				<path style="fill:#263238;" d="M122.568,102.074c-1.672,3.09-4.947,5.192-8.716,5.192s-7.044-2.102-8.716-5.192
					c2.496-1.667,5.491-2.641,8.716-2.641S120.072,100.407,122.568,102.074z"/>
				<path style="fill:#FFC3BD;" d="M118.268,93.96c0,2.439-1.977,4.416-4.416,4.416s-4.416-1.977-4.416-4.416
					c0-2.439,1.977-4.416,4.416-4.416S118.268,91.521,118.268,93.96z"/>
			</g>
		</g>
		<g>
			<rect x="187.211" y="201.776" style="fill:#407BFF;" width="20.011" height="1"/>
			<path style="fill:#407BFF;" d="M215.355,199.276H97.292c-4.308,0-7.833-3.525-7.833-7.833v-19.435
				c0-4.308,3.525-7.833,7.833-7.833h118.064c4.308,0,7.833,3.525,7.833,7.833v19.435
				C223.188,195.751,219.663,199.276,215.355,199.276z"/>
			<polygon style="fill:#FFFFFF;" points="140.351,176.429 142.071,179.916 145.919,180.475 143.135,183.189 143.792,187.02 
				140.351,185.211 136.909,187.02 137.567,183.189 134.783,180.475 138.63,179.916 			"/>
			<polygon style="fill:#FFFFFF;" points="155.971,176.429 157.691,179.916 161.538,180.475 158.755,183.189 159.412,187.02 
				155.971,185.211 152.529,187.02 153.187,183.189 150.403,180.475 154.25,179.916 			"/>
			<polygon style="fill:#FFFFFF;" points="171.591,176.429 173.311,179.916 177.159,180.475 174.375,183.189 175.032,187.02 
				171.591,185.211 168.15,187.02 168.807,183.189 166.023,180.475 169.87,179.916 			"/>
			<polygon style="fill:#FFFFFF;" points="187.211,176.429 188.931,179.916 192.779,180.475 189.995,183.189 190.652,187.02 
				187.211,185.211 183.77,187.02 184.427,183.189 181.643,180.475 185.49,179.916 			"/>
			<polygon style="fill:#FFFFFF;" points="202.831,176.429 204.551,179.916 208.399,180.475 205.615,183.189 206.272,187.02 
				202.831,185.211 199.389,187.02 200.047,183.189 197.263,180.475 201.11,179.916 			"/>
			<g>
				
					<ellipse transform="matrix(0.7071 -0.7071 0.7071 0.7071 -95.1534 133.7318)" style="opacity:0.2;fill:#FFFFFF;" cx="113.852" cy="181.726" rx="12.013" ry="12.013"/>
				<path style="fill:#FFFFFF;" d="M123.766,181.725c0,1.712-0.434,3.32-1.198,4.723c-1.672,3.09-4.947,5.192-8.716,5.192
					s-7.044-2.102-8.716-5.192c-0.764-1.403-1.198-3.01-1.198-4.723c0-5.477,4.438-9.915,9.914-9.915
					C119.328,171.81,123.766,176.248,123.766,181.725z"/>
				<path style="opacity:0.5;fill:#407BFF;" d="M122.568,186.447c-1.672,3.09-4.947,5.192-8.716,5.192s-7.044-2.102-8.716-5.192
					c2.496-1.667,5.491-2.641,8.716-2.641S120.072,184.78,122.568,186.447z"/>
				<path style="fill:#FFB573;" d="M118.268,178.333c0,2.439-1.977,4.416-4.416,4.416s-4.416-1.977-4.416-4.416
					c0-2.439,1.977-4.416,4.416-4.416S118.268,175.894,118.268,178.333z"/>
			</g>
		</g>
		<g>
			<path style="fill:#407BFF;" d="M215.355,157.089H97.292c-4.308,0-7.833-3.525-7.833-7.833v-19.434
				c0-4.308,3.525-7.833,7.833-7.833h118.064c4.308,0,7.833,3.525,7.833,7.833v19.434
				C223.188,153.565,219.663,157.089,215.355,157.089z"/>
			<polygon style="fill:#407BFF;" points="219.555,142.54 211.156,157.089 232.155,157.089 			"/>
			<polygon style="fill:#FFFFFF;" points="140.351,134.243 142.071,137.729 145.919,138.288 143.135,141.002 143.792,144.834 
				140.351,143.025 136.909,144.834 137.567,141.002 134.783,138.288 138.63,137.729 			"/>
			<polygon style="fill:#FFFFFF;" points="155.971,134.243 157.691,137.729 161.538,138.288 158.755,141.002 159.412,144.834 
				155.971,143.025 152.529,144.834 153.187,141.002 150.403,138.288 154.25,137.729 			"/>
			<path style="opacity:0.3;fill:#FFFFFF;" d="M171.591,136.502l0.824,1.669c0.146,0.295,0.427,0.5,0.753,0.547l1.842,0.268
				l-1.333,1.299c-0.236,0.23-0.343,0.561-0.288,0.885l0.315,1.835l-1.648-0.866c-0.146-0.077-0.305-0.115-0.465-0.115
				c-0.16,0-0.32,0.038-0.465,0.115l-1.648,0.866l0.315-1.835c0.056-0.324-0.052-0.655-0.288-0.885l-1.333-1.299l1.842-0.268
				c0.326-0.047,0.607-0.252,0.753-0.547L171.591,136.502 M171.591,134.243l-1.721,3.486l-3.847,0.559l2.784,2.714l-0.657,3.832
				l3.441-1.809l3.441,1.809l-0.657-3.832l2.784-2.714l-3.847-0.559L171.591,134.243L171.591,134.243z"/>
			<path style="opacity:0.3;fill:#FFFFFF;" d="M187.211,136.502l0.824,1.669c0.146,0.295,0.427,0.5,0.753,0.547l1.842,0.268
				l-1.333,1.299c-0.236,0.23-0.343,0.561-0.288,0.885l0.315,1.835l-1.648-0.866c-0.146-0.077-0.305-0.115-0.465-0.115
				c-0.16,0-0.32,0.038-0.465,0.115l-1.648,0.866l0.315-1.835c0.056-0.324-0.052-0.655-0.288-0.885l-1.333-1.299l1.842-0.268
				c0.326-0.047,0.607-0.252,0.753-0.547L187.211,136.502 M187.211,134.243l-1.721,3.486l-3.847,0.559l2.784,2.714l-0.657,3.832
				l3.441-1.809l3.441,1.809l-0.657-3.832l2.784-2.714l-3.847-0.559L187.211,134.243L187.211,134.243z"/>
			<path style="opacity:0.3;fill:#FFFFFF;" d="M202.831,136.502l0.824,1.669c0.146,0.295,0.427,0.5,0.753,0.547l1.842,0.268
				l-1.333,1.299c-0.236,0.23-0.343,0.561-0.288,0.885l0.315,1.835l-1.648-0.866c-0.146-0.077-0.305-0.115-0.465-0.115
				s-0.32,0.038-0.465,0.115l-1.648,0.866l0.315-1.835c0.056-0.324-0.052-0.655-0.288-0.885l-1.333-1.299l1.842-0.268
				c0.326-0.047,0.607-0.252,0.753-0.547L202.831,136.502 M202.831,134.243l-1.721,3.486l-3.847,0.559l2.784,2.714l-0.657,3.832
				l3.441-1.809l3.441,1.809l-0.657-3.832l2.784-2.714l-3.847-0.559L202.831,134.243L202.831,134.243z"/>
			<g>
				<circle style="opacity:0.2;fill:#FFFFFF;" cx="113.852" cy="139.54" r="12.013"/>
				<path style="fill:#FFFFFF;" d="M123.766,139.538c0,1.712-0.434,3.32-1.198,4.723c-1.672,3.09-4.947,5.192-8.716,5.192
					s-7.044-2.102-8.716-5.192c-0.764-1.403-1.198-3.01-1.198-4.723c0-5.477,4.438-9.915,9.914-9.915
					C119.328,129.624,123.766,134.062,123.766,139.538z"/>
				<path style="fill:#407BFF;" d="M122.568,144.261c-1.672,3.09-4.947,5.192-8.716,5.192s-7.044-2.102-8.716-5.192
					c2.496-1.667,5.491-2.641,8.716-2.641S120.072,142.593,122.568,144.261z"/>
				<path style="fill:#B55B52;" d="M118.268,136.146c0,2.439-1.977,4.416-4.416,4.416s-4.416-1.977-4.416-4.416
					s1.977-4.416,4.416-4.416S118.268,133.707,118.268,136.146z"/>
			</g>
		</g>
	</g>
</g>
</svg>
