<?xml version="1.0" encoding="utf-8"?>
<!-- Generator: Adobe Illustrator 27.5.0, SVG Export Plug-In . SVG Version: 6.00 Build 0)  -->
<svg version="1.1" id="Слой_1" xmlns="http://www.w3.org/2000/svg" xmlns:xlink="http://www.w3.org/1999/xlink" x="0px" y="0px"
	 viewBox="0 0 658.701 533.836" style="enable-background:new 0 0 658.701 533.836;" xml:space="preserve">
<g>
	<rect x="0.001" y="0.001" style="fill:#F7F7F7;" width="658.701" height="533.836"/>
	<g>
		<g>
			<linearGradient id="SVGID_1_" gradientUnits="userSpaceOnUse" x1="347.4168" y1="440.5049" x2="347.4168" y2="355.2591">
				<stop  offset="0" style="stop-color:#D5E4FF"/>
				<stop  offset="1" style="stop-color:#EDFFFE"/>
			</linearGradient>
			<path style="fill:url(#SVGID_1_);" d="M439.433,408.979H255.4c-3.788,0-6.86-3.07-6.86-6.859v-21.311
				c0-3.788,3.071-6.859,6.86-6.859h184.032c3.789,0,6.86,3.071,6.86,6.859v21.311C446.293,405.908,443.222,408.979,439.433,408.979
				z"/>
			<g>
				<path style="fill:#609A3E;" d="M487.286,192.075c-0.945-0.327-1.466-0.561-1.466-0.561c0.477-0.171,0.987-0.383,1.528-0.644
					c7.391-3.537,20.464-15.867,34.221-53.439c14.765-40.32,37.587-27.5,37.587-27.5c-11.907,5.658-9.728,32.453-27.545,63.311
					C516.228,199.886,493.27,194.139,487.286,192.075z"/>
				<g>
					
						<linearGradient id="SVGID_00000065054060471797284060000016866761753292990087_" gradientUnits="userSpaceOnUse" x1="2888.4063" y1="-3494.3521" x2="2888.4063" y2="-3561.4502" gradientTransform="matrix(0.8492 0.5282 -0.5282 0.8492 -3808.2273 1642.2506)">
						<stop  offset="0.0052" style="stop-color:#3C6127"/>
						<stop  offset="1" style="stop-color:#639C38"/>
					</linearGradient>
					<path style="fill:url(#SVGID_00000065054060471797284060000016866761753292990087_);" d="M487.286,192.075
						c-0.945-0.327-1.466-0.561-1.466-0.561c0.477-0.171,0.987-0.383,1.528-0.644c11.416-2.945,25.512-10.143,32.678-24.428
						c5.484-10.917,13.807-33.683,13.886-33.909l1.101,0.396c-0.087,0.228-8.431,23.063-13.939,34.04
						C513.658,181.732,499.037,189.111,487.286,192.075z"/>
				</g>
			</g>
			<g>
				<path style="fill:#609A3E;" d="M541.158,199.421c-36.653,19.945-52.239-9.281-53.417-11.625c-0.051-0.102-0.074-0.15-0.074-0.15
					c1.093,0.177,2.171,0.307,3.228,0.372c28.214,2.056,45.024-30.471,64.833-42.319c20.546-12.291,36.212,3.112,36.212,3.112
					C572.46,142.382,579.316,178.649,541.158,199.421z"/>
				<g>
					
						<linearGradient id="SVGID_00000009564091982435432160000017710651652665198745_" gradientUnits="userSpaceOnUse" x1="3248.3625" y1="-6170.8081" x2="3248.3625" y2="-6255.0151" gradientTransform="matrix(0.6206 0.7842 -0.7842 0.6206 -6358.8599 1480.7502)">
						<stop  offset="0.0052" style="stop-color:#3C6127"/>
						<stop  offset="1" style="stop-color:#639C38"/>
					</linearGradient>
					<path style="fill:url(#SVGID_00000009564091982435432160000017710651652665198745_);" d="M513.14,193.972
						c-9.168,0.383-18.051-2.46-25.399-6.175c-0.051-0.102-0.074-0.15-0.074-0.15c1.093,0.177,2.171,0.307,3.228,0.372
						c6.633,3,14.309,5.116,22.193,4.788c10.141-0.423,18.91-4.847,26.073-13.135c22.704-26.291,30.31-24.009,30.626-23.901
						l-0.197,0.551l-0.177,0.557c0,0-0.009-0.001-0.021-0.006c-0.442-0.089-8.009-1.145-29.348,23.56
						C532.665,188.981,523.61,193.533,513.14,193.972z"/>
				</g>
			</g>
			
				<linearGradient id="SVGID_00000159464383526616908230000001152976586377090739_" gradientUnits="userSpaceOnUse" x1="470.3867" y1="470.9275" x2="253.4725" y2="56.5077">
				<stop  offset="0" style="stop-color:#D5E4FF"/>
				<stop  offset="1" style="stop-color:#EDFFFE"/>
			</linearGradient>
			<path style="fill:url(#SVGID_00000159464383526616908230000001152976586377090739_);" d="M507.933,393.379H186.9
				c-7.759,0-14.05-6.29-14.05-14.05V92.651c0-7.759,6.291-14.05,14.05-14.05h321.032c7.76,0,14.05,6.291,14.05,14.05v286.678
				C521.982,387.089,515.692,393.379,507.933,393.379z"/>
			<g>
				<g>
					<g>
						<path style="fill:#FFFFFF;" d="M248.048,285.374c4.442-12.261,0.205-25.551-9.563-33.147c-2.365-1.839-5.053-3.344-8.023-4.42
							c-8.996-3.258-18.547-1.846-25.995,2.996c-5.162,3.355-9.314,8.357-11.572,14.592c-0.225,0.62-0.428,1.245-0.609,1.869
							c-0.818,2.832-1.19,5.7-1.15,8.523c0.164,11.846,7.547,22.9,19.345,27.175C225.712,308.479,242.531,300.604,248.048,285.374z
							 M212.982,296.059c-8.845-3.203-14.38-11.492-14.504-20.372c-0.029-2.116,0.248-4.267,0.863-6.391
							c0.136-0.469,0.288-0.938,0.456-1.402c1.693-4.674,4.807-8.423,8.676-10.938c5.584-3.63,12.745-4.69,19.489-2.247
							c2.226,0.806,4.243,1.935,6.016,3.313c7.323,5.693,10.5,15.658,7.17,24.852C237.011,294.292,224.401,300.195,212.982,296.059z
							"/>
					</g>
				</g>
				<g>
					<g>
						<path style="fill:#1A598C;" d="M208.473,256.955l-4.005-6.152c7.448-4.841,16.999-6.254,25.995-2.996
							c2.97,1.076,5.659,2.581,8.023,4.42l-4.508,5.794c-1.773-1.378-3.79-2.507-6.016-3.313
							C221.218,252.265,214.057,253.325,208.473,256.955z"/>
					</g>
				</g>
				<g>
					<g>
						<path style="fill:#2273B5;" d="M199.341,269.296l-7.054-2.032c0.181-0.625,0.384-1.25,0.609-1.869
							c2.258-6.235,6.41-11.236,11.572-14.592l4.005,6.152c-3.869,2.515-6.982,6.265-8.676,10.938
							C199.629,268.358,199.477,268.827,199.341,269.296z"/>
					</g>
				</g>
				<g>
					<g>
						<path style="fill:#3D96E0;" d="M191.137,275.787c-0.04-2.823,0.331-5.691,1.15-8.523l7.054,2.032
							c-0.615,2.124-0.892,4.275-0.863,6.391L191.137,275.787z"/>
					</g>
				</g>
			</g>
			<g>
				<g>
					<g>
						<path style="fill:#FFFFFF;" d="M330.325,280.813c2.413-12.814-3.903-25.251-14.765-31.179
							c-2.629-1.435-5.525-2.488-8.629-3.073c-9.402-1.77-18.602,1.158-25.175,7.133c-4.556,4.141-7.85,9.745-9.077,16.261
							c-0.122,0.649-0.223,1.298-0.301,1.943c-0.353,2.927-0.258,5.816,0.235,8.597c2.065,11.665,11.129,21.39,23.46,23.713
							C311.992,307.206,327.326,296.732,330.325,280.813z M297.432,296.994c-9.245-1.741-16.04-9.032-17.589-17.777
							c-0.369-2.084-0.44-4.252-0.175-6.446c0.059-0.485,0.133-0.971,0.225-1.458c0.92-4.885,3.391-9.086,6.805-12.19
							c4.929-4.48,11.826-6.677,18.875-5.349c2.327,0.438,4.498,1.228,6.47,2.303c8.142,4.443,12.879,13.769,11.07,23.377
							C320.864,291.389,309.367,299.241,297.432,296.994z"/>
					</g>
				</g>
				<g>
					<g>
						<path style="fill:#4B59C7;" d="M286.697,259.123l-4.941-5.429c6.573-5.975,15.773-8.904,25.175-7.133
							c3.105,0.585,6,1.638,8.629,3.073l-3.518,6.443c-1.972-1.075-4.143-1.865-6.47-2.303
							C298.523,252.445,291.626,254.642,286.697,259.123z"/>
					</g>
				</g>
				<g>
					<g>
						<path style="fill:#6F5BE0;" d="M279.667,272.771l-7.289-0.872c0.078-0.646,0.179-1.295,0.301-1.943
							c1.228-6.517,4.522-12.12,9.077-16.261l4.941,5.429c-3.414,3.104-5.885,7.305-6.805,12.19
							C279.801,271.8,279.726,272.285,279.667,272.771z"/>
					</g>
				</g>
				<g>
					<g>
						<path style="fill:#B487FE;" d="M272.613,280.495c-0.494-2.78-0.588-5.67-0.235-8.597l7.289,0.872
							c-0.266,2.194-0.194,4.362,0.175,6.446L272.613,280.495z"/>
					</g>
				</g>
			</g>
			<g>
				<g>
					<g>
						<path style="fill:#FFFFFF;" d="M396.308,249.491c-11.512-6.125-25.267-3.804-34.163,4.796
							c-2.153,2.081-4.022,4.532-5.507,7.32c-4.493,8.446-4.44,18.102-0.697,26.157c2.594,5.583,6.961,10.398,12.815,13.513
							c0.581,0.31,1.171,0.6,1.765,0.866c2.689,1.21,5.476,1.981,8.276,2.34c11.75,1.507,23.735-4.245,29.629-15.322
							C416.034,274.86,410.608,257.1,396.308,249.491z M401.945,285.713c-4.419,8.306-13.404,12.617-22.214,11.488
							c-2.1-0.269-4.19-0.848-6.205-1.755c-0.445-0.2-0.887-0.417-1.324-0.649c-4.389-2.335-7.662-5.945-9.606-10.131
							c-2.808-6.04-2.848-13.278,0.522-19.61c1.112-2.091,2.514-3.927,4.128-5.489c6.668-6.447,16.982-8.188,25.614-3.596
							C403.582,261.675,407.65,274.991,401.945,285.713z"/>
					</g>
				</g>
				<g>
					<g>
						<path style="fill:#1A598C;" d="M362.596,284.666l-6.655,3.099c-3.743-8.056-3.796-17.711,0.697-26.157
							c1.484-2.789,3.353-5.239,5.507-7.32l5.102,5.279c-1.614,1.562-3.016,3.398-4.128,5.489
							C359.748,271.388,359.788,278.626,362.596,284.666z"/>
					</g>
				</g>
				<g>
					<g>
						<path style="fill:#2273B5;" d="M373.526,295.446l-3.006,6.697c-0.594-0.267-1.183-0.557-1.765-0.866
							c-5.854-3.114-10.222-7.93-12.815-13.513l6.655-3.099c1.944,4.185,5.218,7.796,9.606,10.131
							C372.64,295.029,373.081,295.246,373.526,295.446z"/>
					</g>
				</g>
				<g>
					<g>
						<path style="fill:#3788CC;" d="M378.797,304.483c-2.801-0.358-5.588-1.13-8.276-2.34l3.006-6.697
							c2.016,0.907,4.105,1.486,6.205,1.755L378.797,304.483z"/>
					</g>
				</g>
			</g>
			<rect x="191.133" y="318.657" style="fill:#C4C4C4;" width="58.676" height="4.525"/>
			<rect x="191.133" y="328.275" style="fill:#C4C4C4;" width="43.91" height="4.525"/>
			<rect x="272.164" y="318.657" style="fill:#C4C4C4;" width="32.354" height="4.525"/>
			<rect x="272.164" y="328.275" style="fill:#C4C4C4;" width="48.026" height="4.525"/>
			<rect x="358.519" y="318.657" style="fill:#C4C4C4;" width="35.959" height="4.525"/>
			<rect x="358.519" y="328.275" style="fill:#C4C4C4;" width="41.651" height="4.525"/>
			<rect x="449.54" y="126.382" style="fill:#B8D6FF;" width="42.669" height="4.281"/>
			<rect x="449.54" y="139.634" style="fill:#B8D6FF;" width="49.042" height="4.281"/>
			<rect x="449.468" y="152.813" style="fill:#B8D6FF;" width="25.372" height="4.281"/>
			<rect x="449.468" y="165.993" style="fill:#B8D6FF;" width="39.092" height="4.282"/>
			<rect x="191.133" y="349.893" style="fill:#FFFFFF;" width="186.706" height="4.378"/>
			<rect x="191.133" y="360.109" style="fill:#FFFFFF;" width="201.739" height="4.379"/>
			<rect x="191.133" y="370.326" style="fill:#FFFFFF;" width="130.901" height="4.379"/>
			<rect x="191.133" y="349.893" style="fill:#FFA347;" width="97.216" height="4.378"/>
			<rect x="191.133" y="360.109" style="fill:#FFA347;" width="105.044" height="4.379"/>
			<rect x="191.133" y="370.326" style="fill:#FFA347;" width="68.159" height="4.379"/>
			<rect x="218.409" y="206.888" style="fill:#D6D6D6;" width="38.03" height="4.685"/>
			<rect x="209.182" y="198.544" style="fill:#D6D6D6;" width="56.484" height="4.685"/>
			
				<linearGradient id="SVGID_00000102533132438946591010000007574434110491738759_" gradientUnits="userSpaceOnUse" x1="237.51" y1="108.3755" x2="237.51" y2="213.4847">
				<stop  offset="0" style="stop-color:#40D5E6"/>
				<stop  offset="1" style="stop-color:#5577FF"/>
			</linearGradient>
			<path style="fill:url(#SVGID_00000102533132438946591010000007574434110491738759_);" d="M247.33,134.229
				c0,5.423-4.396,9.82-9.82,9.82c-5.423,0-9.819-4.396-9.819-9.82c0-5.423,4.396-9.819,9.819-9.819
				C242.933,124.409,247.33,128.806,247.33,134.229z"/>
			
				<linearGradient id="SVGID_00000040536283173566915470000014119208020547240374_" gradientUnits="userSpaceOnUse" x1="237.4238" y1="108.3755" x2="237.4238" y2="213.4848">
				<stop  offset="0" style="stop-color:#40D5E6"/>
				<stop  offset="1" style="stop-color:#5577FF"/>
			</linearGradient>
			<path style="fill:url(#SVGID_00000040536283173566915470000014119208020547240374_);" d="M255.223,166.241v18.675
				c-5.423,2.467-11.453,3.838-17.799,3.838c-6.347,0-12.376-1.371-17.799-3.838v-18.675c0-9.827,7.966-17.799,17.799-17.799
				C247.257,148.441,255.223,156.414,255.223,166.241z"/>
			<rect x="298.875" y="119.707" style="fill:#FFFFFF;" width="91.467" height="5.896"/>
			<rect x="400.17" y="119.707" style="fill:#FFFFFF;" width="35.546" height="5.896"/>
			<rect x="298.875" y="106.279" style="fill:#FFFFFF;" width="42.951" height="5.896"/>
			<g>
				<g>
					<rect x="299.443" y="142.684" style="fill:#BDE1FF;" width="0.768" height="69.875"/>
				</g>
				<g>
					<rect x="318.91" y="142.684" style="fill:#BDE1FF;" width="0.768" height="69.875"/>
				</g>
				<g>
					<rect x="338.378" y="142.684" style="fill:#BDE1FF;" width="0.767" height="69.875"/>
				</g>
				<g>
					<rect x="357.846" y="142.684" style="fill:#BDE1FF;" width="0.768" height="69.875"/>
				</g>
				<g>
					<rect x="377.313" y="142.684" style="fill:#BDE1FF;" width="0.769" height="69.875"/>
				</g>
				<g>
					<rect x="396.78" y="142.684" style="fill:#BDE1FF;" width="0.768" height="69.875"/>
				</g>
				<g>
					<rect x="416.248" y="142.684" style="fill:#BDE1FF;" width="0.768" height="69.875"/>
				</g>
				<g>
					<rect x="435.716" y="142.684" style="fill:#BDE1FF;" width="0.767" height="69.875"/>
				</g>
			</g>
			<polygon style="fill:#4AAFFF;" points="299.827,189.421 313.085,176.163 319.538,182.616 333.645,168.51 344.821,179.687 
				359.126,165.382 368.927,175.184 393.882,150.228 412.585,168.931 423.91,157.605 436.1,169.794 436.1,212.559 299.827,212.559 
							"/>
			<polygon style="fill:#6F5BE0;" points="299.827,198.202 310.425,187.604 317.123,194.302 324.877,186.547 339.487,201.157 
				357.754,182.89 364.306,189.442 383.151,170.596 400.363,187.808 436.068,152.102 436.068,212.559 299.827,212.559 			"/>
			<rect x="299.443" y="136.797" style="fill:#BDE1FF;" width="8.158" height="1.727"/>
			<rect x="318.91" y="136.797" style="fill:#BDE1FF;" width="5.584" height="1.727"/>
			<rect x="338.378" y="136.797" style="fill:#BDE1FF;" width="6.896" height="1.727"/>
			<rect x="357.846" y="136.797" style="fill:#BDE1FF;" width="5.137" height="1.727"/>
			<rect x="377.313" y="136.797" style="fill:#BDE1FF;" width="4.291" height="1.727"/>
			<rect x="396.78" y="136.797" style="fill:#BDE1FF;" width="8.339" height="1.727"/>
			<rect x="416.248" y="136.797" style="fill:#BDE1FF;" width="5.811" height="1.727"/>
			<rect x="435.716" y="136.797" style="fill:#BDE1FF;" width="3.668" height="1.727"/>
			<path style="opacity:0.73;fill:#FFFFFF;" d="M545.362,383.042h-88.379c-5.703,0-10.327-4.623-10.327-10.326V245.854
				c0-5.704,4.624-10.327,10.327-10.327h88.379c5.704,0,10.327,4.624,10.327,10.327v126.861
				C555.69,378.419,551.066,383.042,545.362,383.042z"/>
			<g>
				<rect x="472.419" y="259.659" style="fill:#D6D6D6;" width="3.212" height="99.252"/>
				<rect x="490.519" y="259.659" style="fill:#D6D6D6;" width="3.211" height="99.252"/>
				<rect x="508.617" y="259.659" style="fill:#D6D6D6;" width="3.211" height="99.252"/>
				<rect x="526.716" y="259.659" style="fill:#D6D6D6;" width="3.211" height="99.252"/>
			</g>
			
				<linearGradient id="SVGID_00000039830499749267214820000008740624330954198169_" gradientUnits="userSpaceOnUse" x1="474.0249" y1="298.1924" x2="474.0249" y2="389.5167">
				<stop  offset="0" style="stop-color:#FFC05C"/>
				<stop  offset="1" style="stop-color:#FF3857"/>
			</linearGradient>
			
				<rect x="471.009" y="309.285" style="fill:url(#SVGID_00000039830499749267214820000008740624330954198169_);" width="6.032" height="40.284"/>
			
				<linearGradient id="SVGID_00000103224376018591966290000001951180426251093891_" gradientUnits="userSpaceOnUse" x1="492.1241" y1="298.1922" x2="492.1241" y2="389.5165">
				<stop  offset="0" style="stop-color:#FFC05C"/>
				<stop  offset="1" style="stop-color:#FF3857"/>
			</linearGradient>
			
				<rect x="489.107" y="275.423" style="fill:url(#SVGID_00000103224376018591966290000001951180426251093891_);" width="6.033" height="40.284"/>
			
				<linearGradient id="SVGID_00000083806620622483544270000008355187724581647033_" gradientUnits="userSpaceOnUse" x1="510.2227" y1="298.1918" x2="510.2227" y2="389.5161">
				<stop  offset="0" style="stop-color:#FFC05C"/>
				<stop  offset="1" style="stop-color:#FF3857"/>
			</linearGradient>
			
				<rect x="507.206" y="298.046" style="fill:url(#SVGID_00000083806620622483544270000008355187724581647033_);" width="6.033" height="40.284"/>
			
				<linearGradient id="SVGID_00000169526227644645864670000013154741230958932655_" gradientUnits="userSpaceOnUse" x1="528.3213" y1="298.1917" x2="528.3213" y2="389.5182">
				<stop  offset="0" style="stop-color:#FFC05C"/>
				<stop  offset="1" style="stop-color:#FF3857"/>
			</linearGradient>
			
				<rect x="525.305" y="293.375" style="fill:url(#SVGID_00000169526227644645864670000013154741230958932655_);" width="6.033" height="40.285"/>
			<g>
				
					<linearGradient id="SVGID_00000085937931899723879870000017584056175346345605_" gradientUnits="userSpaceOnUse" x1="237.4238" y1="116.7438" x2="237.4238" y2="220.6672">
					<stop  offset="0" style="stop-color:#D3DAE0"/>
					<stop  offset="1" style="stop-color:#FFFFFF"/>
				</linearGradient>
				<path style="fill:url(#SVGID_00000085937931899723879870000017584056175346345605_);" d="M237.424,189.921
					c-6.379,0-12.531-1.327-18.283-3.943c-15.766-7.166-25.953-22.981-25.953-40.294c0-24.392,19.844-44.236,44.236-44.236
					c24.392,0,44.236,19.844,44.236,44.236c0,17.312-10.188,33.128-25.954,40.294C249.955,188.595,243.803,189.921,237.424,189.921z
					 M237.424,103.784c-23.104,0-41.901,18.796-41.901,41.901c0,16.398,9.65,31.38,24.585,38.168
					c5.447,2.477,11.273,3.733,17.316,3.733c6.043,0,11.87-1.256,17.316-3.733c14.935-6.788,24.585-21.769,24.585-38.168
					C279.325,122.581,260.528,103.784,237.424,103.784z"/>
			</g>
		</g>
		<g>
			<path style="fill:#6F5BE0;" d="M118.396,297.312c0,0,8.194-18.563-1.313-17.026c0,0-3.236,2.676-6.557,8.125
				c-2.516,4.128-7.746,15.053-7.552,18.749c0.194,3.693,2.822,6.45,5.66,12.384c0,0,5.899,11.015,6.148,12.342l6.236-3.238
				c0,0-5.285-10.53-9.009-19.789L118.396,297.312z"/>
			
				<linearGradient id="SVGID_00000085241323295431541910000010014044042299613070_" gradientUnits="userSpaceOnUse" x1="-1811.8645" y1="331.6094" x2="-1682.6853" y2="331.6094" gradientTransform="matrix(1 0 0 1 1878.6263 0)">
				<stop  offset="0" style="stop-color:#FF9F55"/>
				<stop  offset="1" style="stop-color:#FFD255"/>
			</linearGradient>
			<polygon style="fill:url(#SVGID_00000085241323295431541910000010014044042299613070_);" points="70.396,352.97 195.941,331.593 
				192.307,310.249 66.762,331.626 			"/>
			
				<rect x="194.075" y="312.133" transform="matrix(-0.9858 0.168 -0.168 -0.9858 445.955 602.9796)" style="fill:#2D3038;" width="6.803" height="16.434"/>
			<path style="fill:#EEA886;" d="M165.825,454.574h1.546c0,0-0.516-5.84,0.916-5.896c1.43-0.058,4.98,4.751,7.098,5.496
				c2.118,0.743,12.994,1.372,13.051-0.631c0.057-2.002-4.178-2.806-5.495-3.377c-1.317-0.572-7.729-6.813-8.873-7.556
				c-1.145-0.745-3.099-5.919-3.099-5.919l-6.071-0.27c0,0-0.343,4.836-0.711,7.397c-0.137,0.947-0.236,1.81-0.251,2.398
				C163.879,448.392,165.825,454.574,165.825,454.574z"/>
			<path style="fill:#EEA886;" d="M126.712,453.42H128v-5.436c1.073,0.091,4.68,3.504,5.796,4.492
				c1.115,0.986,2.646,0.943,7.349,1.241c4.701,0.3,5.145-2.515,4.401-3.473c-0.744-0.958-3.149-1.378-4.401-1.976
				c-1.251-0.599-6.189-6.168-7.507-7.485c-1.316-1.316-2.118-5.089-2.118-5.089l-5.495,0.479c0,0,0.035,3.452-0.591,6.347v0.001
				c-0.002,0.008-0.004,0.016-0.005,0.022c-0.053,0.247-0.112,0.489-0.176,0.725C124.436,446.278,126.712,453.42,126.712,453.42z"/>
			<path style="fill:#1D3B54;" d="M147.031,330.232c0,0,2.077,4.911,2.26,6.151c0.183,1.241,5.045,12.993,6.452,20.916
				c0.842,4.743,3.165,19.592,3.354,21.479c0.322,3.23,1.844,10.363,2.078,13.663c0.131,1.845,9.217,30.162,11.417,44.946
				c0,0-5.226,0.775-9.151-0.264c0,0-7.977-15.279-12.406-36.953c-2.668-13.053-5.027-20.013-7.093-25.389
				c-2.066-5.376-13.771-20.603-14.993-22.313c-1.222-1.711-8.876-11.164-1.628-21.405
				C134.568,320.823,147.031,330.232,147.031,330.232z"/>
			<path style="fill:#1D3B54;" d="M120.864,373.731c0.663,4.409-0.034,10.201-1.419,26.322c-1.387,16.12,2.423,35.641,2.423,35.641
				c4.785,1.638,10.296,0,10.296,0c-0.126-1.134,0-39.294,0-42.694c0-3.4,0.977-7.259,1.227-11.162
				c0.172-2.66,1.41-7.563,2.802-12.57c0.417-1.5,0.848-3.007,1.268-4.468c0-0.001,0-0.001,0-0.001
				c0.236-0.819,0.467-1.624,0.691-2.402c1.961-6.801,4.598-33.06,4.598-33.06s-14.616-11.773-21.732-0.69
				c-7.116,11.082-3.462,19.142-3.211,20.527C118.059,350.561,120.201,369.324,120.864,373.731z"/>
			<path style="fill:#122536;" d="M126.925,350.048c0.113,0.252,7.396,16.417,9.27,19.22c0.417-1.5,0.848-3.007,1.268-4.468
				c0-0.001,0-0.001,0-0.001S127.169,350.403,126.925,350.048z"/>
			<path style="fill:#172F42;" d="M126.712,453.42H128v-5.436c1.073,0.091,4.68,3.504,5.796,4.492
				c1.115,0.986,2.646,0.943,7.349,1.241c4.701,0.3,5.145-2.515,4.401-3.473c-0.744-0.958-3.149-1.378-4.401-1.976
				c-5.029,0.268-11.167-6.802-14.113-6.787c-1.566,0.008-1.551,0.875-1.599,1.038v0.001c-0.002,0.008-0.004,0.016-0.005,0.022
				c-0.053,0.247-0.112,0.489-0.176,0.725C124.436,446.278,126.712,453.42,126.712,453.42z"/>
			<path style="fill:#172F42;" d="M165.825,454.574h1.546c0,0-0.516-5.84,0.916-5.896c1.43-0.058,4.98,4.751,7.098,5.496
				c2.118,0.743,12.994,1.372,13.051-0.631c0.057-2.002-4.178-2.806-5.495-3.377c-4.486-0.011-11.782-4.947-14.044-5.948
				c-2.262-1.001-4.71-0.399-4.71-0.399c-0.137,0.947-0.236,1.81-0.251,2.398C163.879,448.392,165.825,454.574,165.825,454.574z"/>
			<path style="fill:#EEA886;" d="M134.126,268.584c0,0-2.332,6.171-0.518,10.94c0,0-8.552-0.557-8.875-1.554
				c-0.324-0.999,0.344-10.244-0.833-12.977C122.725,262.261,134.126,268.584,134.126,268.584z"/>
			<path style="fill:#6F5BE0;" d="M134.953,277.437c0,0,5.053,1.797,7.336,2.297c2.284,0.499,7.062,2.762,6.673,11.281
				c-0.389,8.52-1.814,15.907-2.332,19.568c-0.518,3.661-0.194,12.979,0.648,17.505c0,0-12.114,3.062-26.367,0
				c0,0,2.526-7.721,2.462-9.718c-0.065-1.996-8.422-18.437-8.811-21.032c-0.389-2.596-2.073-14.044,1.749-16.573
				c3.822-2.529,6.932-2.196,8.551-3.328C126.482,276.305,132.589,276.625,134.953,277.437z"/>
			<path style="fill:#6F5BE0;" d="M115.454,341.476c20.697,5.491,37.169,0.022,37.169,0.022c-1.502-3.088-2.607-6.168-3.407-9.149
				c0-0.002-0.001-0.002-0.001-0.003c-0.566-2.107-0.98-4.163-1.274-6.14v-0.001c-1.682-11.276,0.512-19.91,0.512-19.91
				c-2.389-19.662-32.141-25.531-34.523-19.298c-2.383,6.232,4.618,33.018,4.972,35.314
				C119.255,324.607,115.454,341.476,115.454,341.476z"/>
			<path style="fill:#EEA886;" d="M126.673,243.828c3.438-1.179,12.73-2.435,15.111,11.829c2.38,14.264-2.804,14.509-8.131,14.103
				c-5.327-0.405-13.659-10.033-14.296-12.96C118.718,253.874,116.864,247.193,126.673,243.828z"/>
			<path style="fill:#E8734D;" d="M139.869,249.306c0,0-2.838,6.072-6.562,8.189c0,0-2.333,6.452-7.383,9.061
				c0,0-13.404-8.879-5.626-19.431C128.075,236.574,138.991,244.977,139.869,249.306z"/>
			<path style="fill:#EEA886;" d="M133.636,255.39c-0.302-0.742-2.311-1.949-3.212,0.087c-0.901,2.036,2.334,5.622,3.22,5.429
				C134.531,260.712,134.78,258.206,133.636,255.39z"/>
			<path style="fill:#E8734D;" d="M120.751,248.756c-0.293-0.458-9.169-4.566-11.016,4.02c-1.846,8.586,7.148,18.57,8.725,22.863
				s-0.712,14.355-0.712,14.355s5.413-5.116,7.049-10.472C126.595,273.643,127.199,258.814,120.751,248.756z"/>
			<path style="fill:#E54242;" d="M120.303,248.463c0,0,2.717,2.15,3.067,5.542c0,0,0.51-2.646-0.586-4.262
				C121.689,248.126,120.303,248.463,120.303,248.463z"/>
			<path style="fill:#1D3B54;" d="M149.214,332.346c-0.566-2.107-0.98-4.163-1.274-6.14v-0.001c0,0-1.364-2.901-1.824-4.288
				c-0.462-1.386-3.887-18.432-3.887-18.432S138.603,319.494,149.214,332.346z"/>
			<path style="fill:#EEA886;" d="M164.451,333.336c0,0,2.668,2.649,3.532,2.917c0.863,0.267,2.527-1.203,8.655-1.658
				c0.538-0.04,1.484,0.444,1.261,1.155c-0.223,0.711-2.89,2.645-4.032,2.94c-1.142,0.295-6.527,2.435-9.152,1.385
				c-2.625-1.051-4.411-4.391-4.411-4.391L164.451,333.336z"/>
			<path style="fill:#6F5BE0;" d="M143.718,280.2c0,0,7.088,2.809,7.507,12.659c0.42,9.852,0.805,14.994,1.189,16.515
				c0.385,1.521,1.12,7.631,2.904,11.309c1.73,3.567,13.088,14.857,13.088,14.857l-5.497,5.169c0,0-15.833-15.888-16.795-18.792
				c-0.962-2.904-4.919-23.118-5.235-26.526C140.626,292.643,137.003,280.404,143.718,280.2z"/>
			<path style="opacity:0.1;fill:#B8B8B8;" d="M344.904,302.842c0,37.902-30.725,68.628-68.627,68.628
				c-37.901,0-68.627-30.726-68.627-68.628c0-37.901,30.726-68.627,68.627-68.627C314.179,234.215,344.904,264.94,344.904,302.842z"
				/>
			<path style="opacity:0.3;fill:#869AC2;" d="M231.955,254.127c0,0,85.47-10.594,102.501,79.611c0,0,0-0.001,0.001-0.001
				c4.903-9.214,7.682-19.729,7.682-30.896c0-36.373-29.487-65.861-65.861-65.861C259.208,236.981,243.655,243.475,231.955,254.127z
				"/>
			<path style="fill:#3F444F;" d="M276.281,224.047c-43.519,0-78.798,35.279-78.798,78.795c0,43.521,35.279,78.801,78.798,78.801
				c43.52,0,78.797-35.279,78.797-78.801C355.078,259.326,319.801,224.047,276.281,224.047z M276.281,368.811
				c-36.433,0-65.967-29.532-65.967-65.969c0-36.432,29.535-65.966,65.967-65.966c36.434,0,65.967,29.534,65.967,65.966
				C342.248,339.278,312.714,368.811,276.281,368.811z"/>
		</g>
		<g>
			<g>
				<path style="fill:#5C544D;" d="M572.503,439.842c0,0,0.64,4.317,0.72,4.966c0.08,0.649,7.118-0.382,7.118-0.382l0.569-5.141
					C580.91,439.285,573.383,439.232,572.503,439.842z"/>
			</g>
			<g>
				<path style="fill:#1C1E26;" d="M573.148,444.259c0,0-2.231,2.603-4.387,3.736c-2.156,1.134-5.546,1.584-6.821,2.758
					c-0.92,0.847-3.353,4.496,5.604,4.422c8.957-0.074,13.275,0.516,14.235-0.884c0.959-1.398-1.389-10.324-1.389-10.324
					S578.271,444.709,573.148,444.259z"/>
			</g>
			<g>
				<path style="fill:#5C544D;" d="M522.078,439.842c0,0,0.64,4.317,0.72,4.966c0.08,0.649,7.117-0.382,7.117-0.382l0.57-5.141
					C530.485,439.285,522.958,439.232,522.078,439.842z"/>
			</g>
			<g>
				<path style="fill:#1C1E26;" d="M522.723,444.259c0,0-2.23,2.603-4.386,3.736c-2.157,1.134-10.093,2.066-11.368,3.239
					c-0.921,0.849-2.451,4.26,10.151,3.94c8.954-0.226,13.275,0.516,14.234-0.884c0.96-1.398-1.388-10.324-1.388-10.324
					S527.968,444.759,522.723,444.259z"/>
			</g>
			<g>
				<path style="fill:#20284D;" d="M570.003,328.358c0,0,3.746,10.716,3.253,19.949c-0.493,9.234,1.937,19.34,2.93,28.986
					c1.107,10.754,5.64,36.213,5.804,41.966c0.165,5.753-0.703,24.121-0.703,24.121l-9.072,0.202c0,0-7.619-44.509-9.593-49.05
					c-1.973-4.542-11.759-36.919-12.088-40.553C550.205,350.348,570.003,328.358,570.003,328.358z"/>
			</g>
			<g>
				<path style="fill:#20284D;" d="M531.865,330.266c0,0-4.983,25.31-5.641,30.961c-0.658,5.652-1.097,27.352-1.426,30.884
					s-2.192,46.224-3.946,51.473h11.598c0,0,8.903-31.036,8.903-45.72c0-14.684,6.878-31.923,11.317-41.612
					c4.44-9.688,14.604-9.917,17.332-27.893C570.003,328.358,535.561,324.564,531.865,330.266z"/>
			</g>
			<g>
				<path style="fill:#EEA886;" d="M555.436,243.768c0,0-9.142-3.289-13.357,3.414c-4.216,6.703-3.81,20.121,0.799,21.771
					c4.608,1.65,11.531,0.787,13.891-3.407c2.358-4.194,4.489-10.257,4.387-14.309C561.052,247.185,557.836,244.938,555.436,243.768
					z"/>
			</g>
			<g>
				<path style="fill:#EEA886;" d="M544.412,268.541c0,0,0.369,2.309-0.241,3.445c-0.61,1.137,11.499,1.166,11.499,1.166
					s0.983-6.184,2.847-11.409C560.38,256.518,544.412,268.541,544.412,268.541z"/>
			</g>
			<g>
				<path style="fill:#FCCCA2;" d="M558.517,261.743c0,0-0.836,1.328-4.247,0.813c-3.412-0.515-7.574-4.887-8.998-5.367
					c-1.425-0.48-1.438-1.286-1.438-1.286l-0.892,1.255l-1.513,0.092c0,0,1.38-3.91-0.702-5.505
					c-2.082-1.595,2.16-12.657,13.102-8.974c0,0,8.403,2.231,8.098,6.834C561.621,254.208,560.396,259.451,558.517,261.743z"/>
			</g>
			<g>
				<path style="fill:#E2D2CA;" d="M543.452,271.85c0,0,0.038-2.173,1.06-2.381c1.023-0.209,11.284-1.158,12.539-0.684v2.53
					C557.052,271.315,554.635,272.749,543.452,271.85z"/>
			</g>
			<g>
				<path style="fill:#EEA886;" d="M544.06,254.229c0.19-0.772,2.23-2.979,3.01-0.616c0.78,2.362-1.179,5.54-2.273,5.268
					C543.704,258.609,543.574,256.187,544.06,254.229z"/>
			</g>
			<g>
				<path style="fill:#313D75;" d="M543.452,271.85c0,0-5.626,1.947-12.142,4.615c0,0-7.496,2.695-8.309,10.668
					c-0.431,4.232-5.109,26.693-5.986,28.594c-0.877,1.9-11.252,32.432-11.618,33.065c-0.365,0.633,8.468,4.165,9.053,3.883
					c0.584-0.282,10.045-27.847,10.995-29.888c0,0,5.446-16.528,5.592-18.992c0,0,0.157,7.022,0.449,8.993
					c0.293,1.971-4.843,40.243-4.697,41.299c0.146,1.056,23.339,2.397,32.621,1.412c9.282-0.986,16.772-3.042,16.772-3.042
					s-7.304-30.204-7.08-33.553c0.489-7.296,3.021-21.039,3.021-21.039l7.568,13.743l-9.688,24.004l2.22,7.296
					c0,0,18.002-26.2,18.587-28.594c0.584-2.394-0.883-5.441-1.833-7.413c-0.95-1.971-7.19-16.973-8.652-19.084
					c-1.462-2.112-3.932-10.568-9.902-12.922c-4.992-1.968-13.37-3.58-13.37-3.58L543.452,271.85z"/>
			</g>
			<g>
				<polygon style="fill:#C4C4C4;" points="531.073,362.629 488.664,352.154 496.251,323.659 538.66,334.133 				"/>
			</g>
			<g>
				<path style="fill:#C98462;" d="M501.705,355.023c0,0-1.212,1.886-1.654,2.424c-0.442,0.537,1.088,0.876,1.743,0.331
					C502.45,357.233,501.705,355.023,501.705,355.023z"/>
			</g>
			<g>
				<path style="fill:#DE9D7D;" d="M510.536,361.466c0,0,0.717-0.72,0.87-1.182c0,0,0.213-0.859,0.403-1.463
					c0.061-0.191,0.118-0.355,0.167-0.459c0.203-0.43,0.783-1.316,0.97-2.481c0.188-1.164,0.716-6.39,0.716-6.39l-3.285-0.797
					l-2.64-0.537c0,0-5.701,5.478-6.006,6.543c-0.029,0.104-0.054,0.208-0.069,0.308c-0.167,0.927,0.112,1.683,0.082,2.18
					c-0.01,0.182,0.018,1.999,0.457,2.338c0.61,0.474,1.231,0.563,1.742,0.404c0,0,1.235,0.875,2.267,0.822
					c0,0,1.113,0.843,2.377,0.425C508.587,361.177,509.815,361.909,510.536,361.466z"/>
			</g>
			<g>
				<path style="fill:#313D75;" d="M523.359,328.416c0,0-7.527,21.954-8.909,24.259c0,0-5.521-1.117-9.053-3.883l8.265-23.695
					L523.359,328.416z"/>
			</g>
		</g>
	</g>
</g>
</svg>
