<?xml version="1.0" encoding="iso-8859-1"?>
<!-- Uploaded to: SVG Repo, www.svgrepo.com, Generator: SVG Repo Mixer Tools -->
<svg fill="#000000" version="1.1" id="Capa_1" xmlns="http://www.w3.org/2000/svg" xmlns:xlink="http://www.w3.org/1999/xlink" 
	 viewBox="0 0 393.98 393.98" xml:space="preserve">
<g>
	<path d="M382.98,225.812H11c-6.075,0-11,4.925-11,11v112.424h22V247.812h349.98v101.424h22V236.812
		C393.98,230.737,389.056,225.812,382.98,225.812z"/>
	<rect x="41.408" y="266.193" width="145.666" height="48"/>
	<rect x="206.906" y="266.193" width="145.666" height="48"/>
	<path d="M84.99,188.744h68.941l-7.825,9.392c-1.552,1.863-1.887,4.456-0.858,6.652c1.028,2.196,3.235,3.599,5.66,3.599h92.164
		c0.007,0,0.013,0,0.02,0c3.452,0,6.25-2.798,6.25-6.25c0-1.68-0.663-3.204-1.741-4.327l-7.553-9.065h68.941
		c4.142,0,7.5-3.357,7.5-7.5v-129c0-4.143-3.358-7.5-7.5-7.5h-224c-4.142,0-7.5,3.357-7.5,7.5v129
		C77.49,185.387,80.848,188.744,84.99,188.744z M92.49,59.744h209v114h-209V59.744z"/>
	<path d="M211.877,88.392c-1.239-1.102-3.135-0.988-4.235,0.252l-43.5,49c-1.1,1.238-0.987,3.135,0.252,4.234
		c0.571,0.508,1.282,0.757,1.991,0.757c0.828,0,1.652-0.341,2.245-1.009l43.5-49C213.229,91.388,213.117,89.491,211.877,88.392z"/>
	<path d="M214.991,104.421l-29.043,32.717c-1.1,1.238-0.987,3.135,0.252,4.234c0.571,0.508,1.282,0.757,1.991,0.757
		c0.828,0,1.652-0.341,2.245-1.009l29.043-32.717c1.1-1.238,0.987-3.135-0.252-4.234
		C217.988,103.067,216.091,103.182,214.991,104.421z"/>
</g>
</svg>